<?xml version="1.0" encoding="UTF-8" standalone="no"?><!DOCTYPE svg PUBLIC "-//W3C//DTD SVG 1.1//EN" "http://www.w3.org/Graphics/SVG/1.1/DTD/svg11.dtd"><svg width="100%" height="100%" viewBox="0 0 427 167" version="1.1" xmlns="http://www.w3.org/2000/svg" xmlns:xlink="http://www.w3.org/1999/xlink" xml:space="preserve" xmlns:serif="http://www.serif.com/" style="fill-rule:evenodd;clip-rule:evenodd;stroke-linejoin:round;stroke-miterlimit:2;"><rect id="depot-dark" x="0.028" y="0" width="426.501" height="166.667" style="fill:none;"/><g><path d="M168.252,112.367c-3.978,0 -7.608,-1.105 -10.892,-3.315c-3.283,-2.273 -5.904,-5.272 -7.861,-8.997c-1.894,-3.789 -2.841,-7.956 -2.841,-12.502c-0,-4.61 1.01,-8.745 3.03,-12.408c2.021,-3.725 4.736,-6.693 8.146,-8.903c3.472,-2.209 7.324,-3.314 11.555,-3.314c2.588,-0 4.988,0.505 7.198,1.515c2.273,1.01 4.231,2.462 5.872,4.357l-0,-24.152l15.343,-2.368l0,69.803l-15.154,0l0,-6.346c-1.579,2.021 -3.662,3.631 -6.251,4.831c-2.525,1.199 -5.24,1.799 -8.145,1.799Zm5.114,-12.691c1.831,-0 3.505,-0.316 5.02,-0.947c1.516,-0.695 2.873,-1.674 4.073,-2.936l-0,-16.48c-1.2,-1.263 -2.589,-2.21 -4.168,-2.842c-1.515,-0.631 -3.157,-0.947 -4.925,-0.947c-2.209,0 -4.198,0.537 -5.966,1.61c-1.768,1.011 -3.157,2.431 -4.168,4.262c-1.01,1.831 -1.515,3.915 -1.515,6.251c-0,2.273 0.505,4.326 1.515,6.157c1.011,1.831 2.4,3.283 4.168,4.356c1.768,1.011 3.757,1.516 5.966,1.516Zm55.178,13.354c-4.8,0 -9.156,-1.105 -13.071,-3.315c-3.852,-2.273 -6.945,-5.304 -9.281,-9.092c-2.274,-3.852 -3.41,-8.145 -3.41,-12.881c-0,-4.799 1.073,-9.092 3.22,-12.881c2.147,-3.788 5.084,-6.788 8.808,-8.997c3.725,-2.274 7.925,-3.41 12.597,-3.41c4.736,-0 8.903,1.105 12.502,3.315c3.599,2.21 6.409,5.272 8.429,9.187c2.084,3.852 3.126,8.303 3.126,13.354l-0,3.315l-33.623,0c0.505,1.831 1.295,3.441 2.368,4.831c1.073,1.389 2.399,2.462 3.978,3.22c1.579,0.757 3.284,1.136 5.114,1.136c2.02,0 3.852,-0.347 5.494,-1.041c1.704,-0.695 3.094,-1.705 4.167,-3.031l10.134,8.429c-3.156,2.778 -6.346,4.799 -9.566,6.062c-3.22,1.199 -6.883,1.799 -10.986,1.799Zm-10.703,-30.118l19.416,-0c-0.442,-1.768 -1.136,-3.284 -2.084,-4.546c-0.947,-1.263 -2.083,-2.242 -3.409,-2.936c-1.326,-0.695 -2.81,-1.042 -4.452,-1.042c-1.579,-0 -3.03,0.347 -4.356,1.042c-1.263,0.631 -2.337,1.578 -3.221,2.841c-0.821,1.263 -1.451,2.81 -1.894,4.641Zm38.434,48.966l0,-68.666l15.154,-0l-0,6.819c1.641,-2.21 3.725,-3.946 6.251,-5.209c2.588,-1.263 5.335,-1.894 8.24,-1.894c4.041,-0 7.672,1.136 10.892,3.409c3.284,2.21 5.872,5.178 7.766,8.903c1.958,3.725 2.936,7.893 2.936,12.502c0,4.546 -1.01,8.682 -3.031,12.407c-2.02,3.726 -4.766,6.693 -8.239,8.903c-3.41,2.21 -7.23,3.315 -11.461,3.315c-2.652,0 -5.114,-0.473 -7.387,-1.42c-2.21,-1.011 -4.136,-2.431 -5.778,-4.263l0,25.194l-15.343,-0Zm24.53,-32.107c2.274,-0 4.262,-0.506 5.967,-1.516c1.769,-1.073 3.157,-2.526 4.168,-4.357c1.01,-1.831 1.515,-3.914 1.515,-6.251c0,-2.336 -0.505,-4.388 -1.515,-6.156c-1.011,-1.831 -2.399,-3.252 -4.168,-4.262c-1.768,-1.073 -3.757,-1.61 -5.967,-1.61c-1.894,-0 -3.599,0.347 -5.114,1.042c-1.452,0.631 -2.81,1.61 -4.073,2.936l0,16.29c1.201,1.2 2.589,2.147 4.168,2.842c1.579,0.694 3.251,1.042 5.019,1.042Zm55.081,13.259c-4.862,0 -9.219,-1.105 -13.07,-3.315c-3.852,-2.21 -6.914,-5.209 -9.187,-8.997c-2.211,-3.852 -3.315,-8.177 -3.315,-12.976c0,-4.799 1.104,-9.092 3.315,-12.881c2.273,-3.851 5.335,-6.882 9.187,-9.092c3.851,-2.21 8.176,-3.315 12.976,-3.315c4.861,-0 9.187,1.105 12.975,3.315c3.851,2.21 6.882,5.241 9.093,9.092c2.273,3.789 3.409,8.082 3.409,12.881c0,4.799 -1.136,9.124 -3.409,12.976c-2.211,3.788 -5.242,6.787 -9.093,8.997c-3.788,2.21 -8.083,3.315 -12.881,3.315Zm-0.094,-12.786c2.083,0 3.914,-0.537 5.493,-1.61c1.578,-1.073 2.809,-2.557 3.694,-4.452c0.883,-1.894 1.326,-4.041 1.326,-6.44c-0,-2.462 -0.443,-4.609 -1.326,-6.44c-0.885,-1.895 -2.116,-3.378 -3.694,-4.452c-1.579,-1.073 -3.41,-1.61 -5.493,-1.61c-2.022,0 -3.852,0.537 -5.494,1.61c-1.579,1.074 -2.81,2.557 -3.693,4.452c-0.885,1.831 -1.326,3.978 -1.326,6.44c-0,2.399 0.441,4.546 1.326,6.44c0.883,1.895 2.114,3.379 3.693,4.452c1.642,1.073 3.472,1.61 5.494,1.61Zm52.994,12.786c-5.746,0 -10.103,-1.326 -13.07,-3.978c-2.967,-2.652 -4.452,-6.566 -4.452,-11.744l0,-22.257l-9.471,-0l0,-11.839l9.471,-0l0,-13.544l15.344,-3.126l-0,16.67l13.07,-0l-0,11.839l-13.07,-0l-0,19.226c-0,2.147 0.473,3.662 1.42,4.546c1.011,0.884 2.683,1.326 5.02,1.326c0.884,0 1.769,-0.063 2.652,-0.189c0.884,-0.126 2.084,-0.41 3.599,-0.852l0,12.407c-1.389,0.442 -3.094,0.789 -5.114,1.042c-2.02,0.315 -3.82,0.473 -5.399,0.473Z" style="fill:#eeeef0;fill-rule:nonzero;"/><path d="M30.399,51.408c-0,-8.173 6.625,-14.799 14.798,-14.799l8.88,0c1.634,0 2.959,1.326 2.959,2.96l0,11.839c0,1.635 -1.325,2.96 -2.959,2.96l-20.719,-0c-1.634,-0 -2.959,-1.325 -2.959,-2.96Z" style="fill:#eeeef0;fill-rule:nonzero;"/><path d="M57.036,85.965l0,13.759c0,1.104 -0.896,2 -2,2l-22.637,-0c-1.104,-0 -2,-0.896 -2,-2l-0,-13.759c-0,-1.103 0.896,-2 2,-2l22.637,0c1.104,0 2,0.897 2,2Z" style="fill:#eeeef0;"/><path d="M30.399,110.603c-0,-1.634 1.325,-2.96 2.959,-2.96l20.719,0c1.634,0 2.959,1.326 2.959,2.96l0,11.839c0,1.635 -1.325,2.96 -2.959,2.96l-8.88,-0c-8.173,-0 -14.798,-6.626 -14.798,-14.799Z" style="fill:#eeeef0;fill-rule:nonzero;"/><path d="M92.553,109.643l0,13.759c0,1.104 -0.896,2 -2,2l-25.597,-0c-1.104,-0 -2,-0.896 -2,-2l-0,-13.759c-0,-1.103 0.896,-2 2,-2l25.597,0c1.104,0 2,0.897 2,2Z" style="fill:#eeeef0;"/><path d="M98.473,110.603c-0,-1.634 1.325,-2.96 2.96,-2.96l20.718,0c1.635,0 2.96,1.326 2.96,2.96c-0,8.173 -6.626,14.799 -14.799,14.799l-8.879,-0c-1.635,-0 -2.96,-1.325 -2.96,-2.96l-0,-11.839Z" style="fill:#eeeef0;fill-rule:nonzero;"/><path d="M125.111,85.965l-0,13.759c-0,1.104 -0.897,2 -2,2l-22.638,-0c-1.104,-0 -2,-0.896 -2,-2l-0,-13.759c-0,-1.103 0.896,-2 2,-2l22.638,0c1.103,0 2,0.897 2,2Z" style="fill:#eeeef0;"/><path d="M125.111,62.287l-0,13.759c-0,1.104 -0.897,2 -2,2l-22.638,-0c-1.104,-0 -2,-0.896 -2,-2l-0,-13.759c-0,-1.103 0.896,-2 2,-2l22.638,0c1.103,0 2,0.897 2,2Z" style="fill:#eeeef0;"/><path d="M62.956,39.569c-0,-1.634 1.325,-2.96 2.96,-2.96l44.396,0c8.173,0 14.799,6.626 14.799,14.799c-0,1.635 -1.325,2.96 -2.96,2.96l-56.235,-0c-1.635,-0 -2.96,-1.325 -2.96,-2.96l-0,-11.839Z" style="fill:#46a759;fill-rule:nonzero;"/><path d="M92.553,62.287l0,13.759c0,1.104 -0.896,2 -2,2l-58.154,-0c-1.104,-0 -2,-0.896 -2,-2l-0,-13.759c-0,-1.103 0.896,-2 2,-2l58.154,0c1.104,0 2,0.897 2,2Z" style="fill:#46a759;"/><path d="M92.553,85.965l0,13.759c0,1.104 -0.896,2 -2,2l-25.597,-0c-1.104,-0 -2,-0.896 -2,-2l-0,-13.759c-0,-1.103 0.896,-2 2,-2l25.597,0c1.104,0 2,0.897 2,2Z" style="fill:#46a759;"/></g></svg>