<?xml version="1.0" encoding="UTF-8" standalone="no"?><!DOCTYPE svg PUBLIC "-//W3C//DTD SVG 1.1//EN" "http://www.w3.org/Graphics/SVG/1.1/DTD/svg11.dtd"><svg width="100%" height="100%" viewBox="0 0 111 41" version="1.1" xmlns="http://www.w3.org/2000/svg" xmlns:xlink="http://www.w3.org/1999/xlink" xml:space="preserve" xmlns:serif="http://www.serif.com/" style="fill-rule:evenodd;clip-rule:evenodd;stroke-linejoin:round;stroke-miterlimit:2;"><rect id="github-light" x="0.182" y="0" width="109.88" height="40" style="fill:none;"/><path d="M20.262,5.828c-7.327,0 -13.251,5.967 -13.251,13.35c0,5.901 3.796,10.896 9.061,12.664c0.658,0.133 0.899,-0.287 0.899,-0.641c0,-0.309 -0.021,-1.37 -0.021,-2.475c-3.687,0.796 -4.454,-1.592 -4.454,-1.592c-0.593,-1.547 -1.47,-1.944 -1.47,-1.944c-1.207,-0.818 0.088,-0.818 0.088,-0.818c1.338,0.088 2.04,1.37 2.04,1.37c1.185,2.033 3.093,1.459 3.861,1.105c0.11,-0.862 0.461,-1.459 0.834,-1.79c-2.94,-0.31 -6.033,-1.459 -6.033,-6.587c-0,-1.458 0.526,-2.652 1.36,-3.58c-0.132,-0.331 -0.593,-1.702 0.132,-3.536c-0,-0 1.119,-0.354 3.641,1.37c1.08,-0.292 2.194,-0.441 3.313,-0.442c1.119,-0 2.26,0.155 3.313,0.442c2.523,-1.724 3.642,-1.37 3.642,-1.37c0.724,1.834 0.263,3.205 0.132,3.536c0.855,0.928 1.36,2.122 1.36,3.58c-0,5.128 -3.093,6.255 -6.055,6.587c0.482,0.42 0.899,1.215 0.899,2.475c0,1.79 -0.022,3.227 -0.022,3.669c0,0.354 0.242,0.774 0.9,0.641c5.265,-1.768 9.061,-6.763 9.061,-12.664c0.021,-7.383 -5.924,-13.35 -13.23,-13.35Z" style="fill:#24292f;"/><g><path d="M51.648,18.71l-5.566,0c-0.144,0 -0.26,0.117 -0.26,0.261l0,2.721c0,0.144 0.116,0.261 0.26,0.261l2.171,-0l0,3.38c0,0 -0.487,0.167 -1.835,0.167c-1.59,-0 -3.812,-0.581 -3.812,-5.466c0,-4.886 2.314,-5.529 4.485,-5.529c1.88,-0 2.69,0.331 3.205,0.49c0.162,0.05 0.312,-0.111 0.312,-0.255l0.621,-2.629c-0,-0.068 -0.023,-0.149 -0.099,-0.204c-0.21,-0.149 -1.487,-0.863 -4.712,-0.863c-3.716,-0 -7.527,1.581 -7.527,9.18c-0,7.6 4.364,8.732 8.041,8.732c3.045,0 4.892,-1.301 4.892,-1.301c0.076,-0.042 0.084,-0.148 0.084,-0.197l0,-8.487c0,-0.144 -0.116,-0.261 -0.26,-0.261Z" style="fill:#0e0d0d;fill-rule:nonzero;"/><path d="M80.333,11.954c-0,-0.144 -0.115,-0.261 -0.259,-0.261l-3.134,-0c-0.143,-0 -0.259,0.117 -0.259,0.261c-0,0.001 0.001,6.057 0.001,6.057l-4.885,-0l-0,-6.057c-0,-0.144 -0.115,-0.261 -0.259,-0.261l-3.134,-0c-0.142,-0 -0.259,0.117 -0.259,0.261l0,16.4c0,0.144 0.117,0.262 0.259,0.262l3.134,0c0.144,0 0.259,-0.118 0.259,-0.262l-0,-7.015l4.885,0c-0,0 -0.009,7.014 -0.009,7.015c0,0.144 0.116,0.262 0.26,0.262l3.141,0c0.144,0 0.259,-0.118 0.259,-0.262l-0,-16.4Z" style="fill:#0e0d0d;fill-rule:nonzero;"/><path d="M57.338,28.195l0,-10.871c0,-0.143 -0.116,-0.261 -0.259,-0.261l-3.124,0c-0.144,0 -0.272,0.148 -0.272,0.292l0,10.845c0,0.319 0.199,0.414 0.456,0.414l2.814,-0c0.309,-0 0.385,-0.152 0.385,-0.419Z" style="fill:#0e0d0d;fill-rule:nonzero;"/><path d="M66.345,17.062l-2.351,-0c0,-0 -0.003,-3.105 -0.003,-3.106c-0,-0.118 -0.061,-0.177 -0.197,-0.177l-3.203,0c-0.125,0 -0.192,0.055 -0.192,0.175l0,3.209c0,0 -1.605,0.388 -1.714,0.419c-0.108,0.032 -0.187,0.131 -0.187,0.25l-0,2.017c-0,0.145 0.116,0.262 0.259,0.262l1.642,-0l0,4.852c0,3.604 2.528,3.958 4.234,3.958c0.779,-0 1.712,-0.251 1.866,-0.307c0.093,-0.035 0.147,-0.131 0.147,-0.236l0.003,-2.218c-0,-0.145 -0.123,-0.262 -0.26,-0.262c-0.138,0 -0.488,0.056 -0.849,0.056c-1.155,-0 -1.546,-0.537 -1.546,-1.232c0,-0.695 0,-4.611 0,-4.611l2.351,-0c0.143,-0 0.26,-0.117 0.26,-0.262l-0,-2.526c-0,-0.145 -0.117,-0.261 -0.26,-0.261Z" style="fill:#0e0d0d;fill-rule:nonzero;"/><path d="M57.562,14.106c0,-1.128 -0.905,-2.04 -2.021,-2.04c-1.115,-0 -2.02,0.912 -2.02,2.04c-0,1.127 0.905,2.042 2.02,2.042c1.116,0 2.021,-0.915 2.021,-2.042Z" style="fill:#0e0d0d;fill-rule:nonzero;"/><path d="M92.243,17.088l-3.109,-0c-0.143,-0 -0.259,0.117 -0.259,0.262l-0,8.041c-0,0 -0.79,0.578 -1.912,0.578c-1.121,0 -1.419,-0.509 -1.419,-1.607l0,-7.012c0,-0.145 -0.115,-0.262 -0.258,-0.262l-3.157,-0c-0.142,-0 -0.259,0.117 -0.259,0.262l0,7.543c0,3.262 1.818,4.06 4.318,4.06c2.052,-0 3.706,-1.134 3.706,-1.134c-0,0 0.078,0.597 0.114,0.668c0.036,0.071 0.129,0.142 0.229,0.142l2.008,-0.009c0.142,0 0.259,-0.117 0.259,-0.261l-0.001,-11.009c-0,-0.145 -0.116,-0.262 -0.26,-0.262Z" style="fill:#0e0d0d;fill-rule:nonzero;"/><path d="M99.517,25.959c-1.079,-0.033 -1.811,-0.522 -1.811,-0.522l0,-5.193c0,-0 0.722,-0.443 1.608,-0.522c1.12,-0.1 2.199,0.238 2.199,2.909c-0,2.818 -0.487,3.374 -1.996,3.328Zm1.226,-9.24c-1.766,0 -2.967,0.788 -2.967,0.788l-0,-5.553c-0,-0.144 -0.116,-0.261 -0.259,-0.261l-3.143,-0c-0.143,-0 -0.259,0.117 -0.259,0.261l0,16.4c0,0.144 0.116,0.262 0.26,0.262l2.18,0c0.098,0 0.173,-0.051 0.228,-0.139c0.054,-0.088 0.132,-0.756 0.132,-0.756c0,-0 1.285,1.218 3.718,1.218c2.856,-0 4.494,-1.449 4.494,-6.504c0,-5.055 -2.616,-5.716 -4.384,-5.716Z" style="fill:#0e0d0d;fill-rule:nonzero;"/></g></svg>