<?xml version="1.0" encoding="UTF-8" standalone="no"?><!DOCTYPE svg PUBLIC "-//W3C//DTD SVG 1.1//EN" "http://www.w3.org/Graphics/SVG/1.1/DTD/svg11.dtd"><svg width="100%" height="100%" viewBox="0 0 127 41" version="1.1" xmlns="http://www.w3.org/2000/svg" xmlns:xlink="http://www.w3.org/1999/xlink" xml:space="preserve" xmlns:serif="http://www.serif.com/" style="fill-rule:evenodd;clip-rule:evenodd;stroke-linejoin:round;stroke-miterlimit:2;"><rect id="patreon-light" x="0.197" y="0" width="126.549" height="40" style="fill:none;"/><g><path d="M108.337,26.397c-0,0.729 0.419,1.185 1.057,1.185c0.638,-0 1.057,-0.456 1.057,-1.185l0,-5.577c0,-0.674 0.401,-1.002 0.82,-1.002c0.328,-0 0.602,0.182 0.802,0.51l3.5,5.851c0.474,0.801 0.911,1.403 1.804,1.403c0.857,-0 1.477,-0.62 1.477,-1.622l-0,-10.498c-0,-0.729 -0.419,-1.184 -1.057,-1.184c-0.638,-0 -1.058,0.455 -1.058,1.184l0,5.577c0,0.674 -0.401,1.002 -0.82,1.002c-0.328,0 -0.601,-0.182 -0.802,-0.51l-3.5,-5.85c-0.473,-0.802 -0.911,-1.403 -1.804,-1.403c-0.857,-0 -1.476,0.619 -1.476,1.622l-0,10.497Zm-12.96,-5.467c-0,2.77 1.64,4.538 4.01,4.538c2.369,-0 4.01,-1.768 4.01,-4.538c-0,-2.789 -1.641,-4.538 -4.01,-4.538c-2.37,-0 -4.01,1.749 -4.01,4.538m-2.406,-0c-0,-3.937 2.953,-6.652 6.416,-6.652c3.463,-0 6.416,2.715 6.416,6.652c-0,3.936 -2.953,6.652 -6.416,6.652c-3.463,-0 -6.416,-2.716 -6.416,-6.652m-10.262,5.431l-0,-10.862c-0,-0.565 0.401,-0.948 1.057,-0.948l6.89,-0c0.656,-0 1.057,0.383 1.057,0.948c0,0.564 -0.401,0.947 -1.057,0.947l-4.356,0c-0.857,0 -1.477,0.511 -1.477,1.477l0,0.4c0,0.966 0.62,1.477 1.477,1.477l3.372,-0c0.656,-0 1.057,0.383 1.057,0.947c-0,0.565 -0.401,0.948 -1.057,0.948l-3.245,0c-0.856,0 -1.604,0.529 -1.604,1.604l0,0.51c0,1.076 0.748,1.604 1.604,1.604l4.229,0c0.656,0 1.057,0.383 1.057,0.948c0,0.565 -0.401,0.948 -1.057,0.948l-6.89,-0c-0.656,-0 -1.057,-0.383 -1.057,-0.948m-9.934,-7.764l-0,-0.547c-0,-1.184 0.62,-1.677 1.567,-1.677l0.912,0c1.567,0 2.57,0.584 2.57,1.932c-0,1.349 -1.057,1.969 -2.625,1.969l-0.857,-0c-0.947,-0 -1.567,-0.492 -1.567,-1.677m-2.114,7.8c-0,0.729 0.419,1.185 1.057,1.185c0.638,-0 1.057,-0.456 1.057,-1.185l-0,-2.897c-0,-0.821 0.474,-1.167 1.057,-1.167l0.146,0c0.383,0 0.765,0.237 1.002,0.583l2.771,4.064c0.255,0.383 0.583,0.602 1.002,0.602c0.547,-0 0.985,-0.456 0.985,-1.002c-0,-0.219 -0.073,-0.456 -0.237,-0.693l-1.841,-2.588c-0.219,-0.31 -0.31,-0.565 -0.31,-0.784c-0,-0.455 0.401,-0.783 0.875,-1.13c0.857,-0.638 1.786,-1.476 1.786,-3.08c0,-2.242 -1.75,-3.754 -4.63,-3.754l-3.663,-0c-0.657,-0 -1.057,0.383 -1.057,0.948l-0,10.898Zm-12.541,-10.862c-0,-0.583 0.419,-0.984 1.094,-0.984l8.384,-0c0.675,-0 1.094,0.401 1.094,0.984c-0,0.583 -0.419,0.984 -1.094,0.984l-1.403,0c-1.112,0 -1.714,0.565 -1.714,1.859l0,8.001c0,0.747 -0.419,1.203 -1.075,1.203c-0.656,-0 -1.075,-0.456 -1.075,-1.203l-0,-8.001c-0,-1.294 -0.602,-1.859 -1.714,-1.859l-1.403,0c-0.675,0 -1.094,-0.401 -1.094,-0.984m-6.58,6.16c-0,-0.2 0.055,-0.383 0.146,-0.656l0.783,-2.169c0.146,-0.419 0.402,-0.619 0.693,-0.619c0.292,-0 0.547,0.2 0.693,0.619l0.784,2.169c0.091,0.273 0.145,0.456 0.145,0.656c0,0.547 -0.31,0.93 -1.13,0.93l-0.984,-0c-0.82,-0 -1.13,-0.383 -1.13,-0.93m-4.028,4.885c-0,0.601 0.419,1.002 1.057,1.002c0.419,-0 0.802,-0.273 1.02,-0.839l0.383,-1.02c0.31,-0.82 0.857,-1.203 1.459,-1.203l3.463,0c0.601,0 1.148,0.383 1.458,1.203l0.383,1.02c0.218,0.566 0.601,0.839 1.02,0.839c0.638,-0 1.058,-0.401 1.058,-1.002c-0,-0.165 -0.037,-0.365 -0.11,-0.566l-4.137,-10.752c-0.256,-0.656 -0.839,-0.984 -1.404,-0.984c-0.565,-0 -1.148,0.328 -1.403,0.984l-4.138,10.752c-0.073,0.201 -0.109,0.401 -0.109,0.566m-6.872,-7.819c-0,1.148 0.583,1.695 1.695,1.695l0.273,-0c1.568,-0 2.716,-0.638 2.716,-2.041c0,-1.404 -1.148,-2.042 -2.716,-2.042l-0.273,0c-1.112,0 -1.695,0.547 -1.695,1.695l-0,0.693Zm-2.115,-3.262c0,-0.565 0.42,-0.948 1.076,-0.948l3.135,-0c2.844,-0 4.776,1.567 4.776,3.864c-0,2.26 -1.914,3.936 -4.776,3.936l-0.438,0c-1.093,0 -1.658,0.565 -1.658,1.477l-0,2.569c-0,0.729 -0.419,1.185 -1.057,1.185c-0.638,-0 -1.058,-0.456 -1.058,-1.185l0,-10.898Z" style="fill:#030404;fill-rule:nonzero;"/><path d="M29.963,15.058c-0.004,-3.162 -2.467,-5.754 -5.356,-6.689c-3.588,-1.161 -8.32,-0.993 -11.746,0.624c-4.152,1.96 -5.457,6.252 -5.505,10.533c-0.04,3.519 0.311,12.789 5.54,12.855c3.885,0.049 4.463,-4.956 6.261,-7.368c1.279,-1.715 2.926,-2.199 4.953,-2.701c3.484,-0.862 5.858,-3.612 5.853,-7.254" style="fill:#030404;fill-rule:nonzero;"/></g></svg>