<?xml version="1.0" encoding="UTF-8" standalone="no"?><!DOCTYPE svg PUBLIC "-//W3C//DTD SVG 1.1//EN" "http://www.w3.org/Graphics/SVG/1.1/DTD/svg11.dtd"><svg width="100%" height="100%" viewBox="0 0 121 41" version="1.1" xmlns="http://www.w3.org/2000/svg" xmlns:xlink="http://www.w3.org/1999/xlink" xml:space="preserve" xmlns:serif="http://www.serif.com/" style="fill-rule:evenodd;clip-rule:evenodd;stroke-linejoin:round;stroke-miterlimit:2;"><rect id="zed-dark" x="0" y="0" width="120.432" height="40" style="fill:none;"/><path d="M7.511,8.611c0,-0.433 0.351,-0.785 0.785,-0.785l20.076,0l-2.746,2.747l-13.799,-0c-0.867,-0 -1.57,0.702 -1.57,1.569l0,9.809l1.57,-0l-0,-9.809l12.23,0l-2.747,2.747l-5.56,-0c-0.65,-0 -1.177,0.526 -1.177,1.177l0,1.961l1.57,0l-0,-1.569l3.598,-0l-12.9,12.9c-0.741,0.741 -0.216,2.009 0.833,2.009l21.024,-0c1.3,-0 2.354,-1.054 2.354,-2.354l-0,-17.263l-1.57,-0l0,17.263c0,0.433 -0.351,0.784 -0.784,0.784l-20.077,0l2.746,-2.746l13.799,0c0.867,0 1.57,-0.702 1.57,-1.569l-0,-9.809l-1.57,0l0,9.809l-12.229,-0l2.697,-2.698l5.609,0c0.65,0 1.177,-0.527 1.177,-1.177l0,-2.01l-1.569,-0l-0,1.618l-3.648,0l12.949,-12.949c0.741,-0.741 0.216,-2.009 -0.832,-2.009l-21.024,0c-1.3,0 -2.354,1.054 -2.354,2.354l-0,17.263l1.569,0l0,-17.263Zm38.265,8.957l-6.354,0l-0,-1.287l4.585,-7.245l-4.585,0l-0,-1.34l6.354,-0l-0,1.218l-4.613,7.307l4.613,-0l-0,1.347Zm8.3,0l-6.341,0l-0,-9.872l6.341,-0l-0,1.34l-4.831,0l0,2.885l4.123,-0l-0,1.334l-4.123,-0l0,2.966l4.831,-0l-0,1.347Zm8.946,-4.51l-0,-0.995c-0,-0.51 -0.021,-0.955 -0.062,-1.334c-0.04,-0.379 -0.136,-0.752 -0.285,-1.117c-0.145,-0.366 -0.366,-0.695 -0.66,-0.989c-0.622,-0.618 -1.476,-0.927 -2.565,-0.927l-3.483,-0l-0,9.872l3.483,0c1.089,0 1.943,-0.309 2.565,-0.928c0.294,-0.293 0.515,-0.632 0.66,-1.015c0.149,-0.384 0.245,-0.775 0.285,-1.172c0.041,-0.397 0.062,-0.862 0.062,-1.395Zm-1.531,-1.808c0.018,0.307 0.027,0.745 0.027,1.314c0,0.853 -0.029,1.501 -0.088,1.943c-0.059,0.443 -0.207,0.793 -0.442,1.05c-0.404,0.442 -0.967,0.664 -1.688,0.664l-1.823,-0l0,-7.185l1.823,0c0.717,0 1.279,0.224 1.688,0.671c0.158,0.176 0.276,0.399 0.353,0.67c0.082,0.271 0.132,0.562 0.15,0.873Zm-20.559,18.597l-1.51,0l-0,-9.872l1.51,-0l-0,9.872Zm8.674,0l1.381,0l-0,-9.872l-1.504,-0l0,6.933l-4.585,-6.933l-1.381,-0l0,9.872l1.51,0l0,-6.947l4.579,6.947Zm10.744,-5.505l0,0.995c0,0.533 -0.02,0.998 -0.061,1.395c-0.041,0.398 -0.136,0.788 -0.286,1.172c-0.145,0.383 -0.365,0.722 -0.66,1.015c-0.621,0.619 -1.476,0.928 -2.564,0.928l-3.484,0l0,-9.872l3.484,-0c1.088,-0 1.943,0.309 2.564,0.927c0.295,0.294 0.515,0.623 0.66,0.989c0.15,0.366 0.245,0.738 0.286,1.117c0.041,0.379 0.061,0.824 0.061,1.334Zm-1.503,0.501c-0,-0.569 -0.009,-1.006 -0.027,-1.314c-0.019,-0.311 -0.068,-0.602 -0.15,-0.873c-0.077,-0.271 -0.195,-0.494 -0.354,-0.67c-0.408,-0.447 -0.97,-0.671 -1.687,-0.671l-1.823,0l-0,7.185l1.823,-0c0.721,-0 1.283,-0.222 1.687,-0.664c0.236,-0.257 0.383,-0.607 0.442,-1.05c0.059,-0.442 0.089,-1.09 0.089,-1.943Zm9.941,3.453c0.309,-0.519 0.463,-1.112 0.463,-1.78l-0,-6.541l-1.503,-0l-0,6.473c-0,0.438 -0.087,0.817 -0.259,1.137c-0.168,0.321 -0.408,0.569 -0.721,0.745c-0.309,0.172 -0.669,0.258 -1.082,0.258c-0.413,-0 -0.773,-0.086 -1.082,-0.258c-0.308,-0.176 -0.546,-0.424 -0.714,-0.745c-0.168,-0.325 -0.252,-0.704 -0.252,-1.137l0,-6.473l-1.503,-0l-0,6.541c-0,0.668 0.154,1.261 0.463,1.78c0.308,0.52 0.732,0.921 1.272,1.206c0.539,0.284 1.145,0.426 1.816,0.426c0.676,0 1.284,-0.142 1.823,-0.426c0.545,-0.285 0.971,-0.686 1.279,-1.206Zm8.813,-1.266c-0,0.438 -0.086,0.84 -0.259,1.205c-0.172,0.362 -0.422,0.671 -0.748,0.928c-0.322,0.253 -0.699,0.445 -1.129,0.576c-0.431,0.126 -0.907,0.189 -1.429,0.189c-0.758,0 -1.417,-0.099 -1.98,-0.298c-0.558,-0.203 -1.07,-0.537 -1.537,-1.002l1.006,-0.988c0.223,0.225 0.465,0.41 0.729,0.555c0.267,0.144 0.551,0.246 0.85,0.305c0.299,0.058 0.619,0.088 0.959,0.088c0.64,-0 1.141,-0.134 1.504,-0.4c0.362,-0.266 0.544,-0.639 0.544,-1.117c-0,-0.447 -0.132,-0.788 -0.395,-1.023c-0.118,-0.117 -0.256,-0.205 -0.415,-0.264c-0.154,-0.063 -0.376,-0.115 -0.666,-0.155l-1.171,-0.163c-0.807,-0.113 -1.435,-0.377 -1.884,-0.792c-0.481,-0.447 -0.721,-1.075 -0.721,-1.883c-0,-0.573 0.134,-1.078 0.401,-1.516c0.268,-0.438 0.651,-0.777 1.15,-1.016c0.499,-0.244 1.086,-0.366 1.762,-0.366c0.667,0 1.243,0.091 1.728,0.271c0.485,0.176 0.937,0.458 1.354,0.847l-0.966,0.948c-0.2,-0.195 -0.413,-0.346 -0.64,-0.454c-0.226,-0.113 -0.462,-0.192 -0.707,-0.237c-0.245,-0.05 -0.515,-0.075 -0.81,-0.075c-0.376,0 -0.701,0.066 -0.973,0.197c-0.272,0.131 -0.48,0.314 -0.626,0.548c-0.14,0.23 -0.21,0.495 -0.21,0.793c-0,0.392 0.124,0.699 0.374,0.92c0.122,0.104 0.283,0.199 0.483,0.285c0.199,0.081 0.41,0.137 0.632,0.169l1.13,0.169c0.453,0.068 0.823,0.161 1.109,0.278c0.29,0.113 0.537,0.264 0.741,0.454c0.54,0.469 0.81,1.144 0.81,2.024Zm5.374,-5.715l2.728,0l0,-1.34l-6.966,-0l-0,1.34l2.735,0l-0,8.532l1.503,0l0,-8.532Zm11.391,8.532l-1.755,0l-2.089,-4.157l-1.878,-0l0,4.157l-1.51,0l0,-9.872l3.851,-0c0.608,-0 1.145,0.124 1.612,0.372c0.472,0.244 0.832,0.585 1.082,1.022c0.254,0.434 0.381,0.93 0.381,1.49c-0,0.677 -0.184,1.244 -0.551,1.7c-0.363,0.451 -0.837,0.758 -1.422,0.921l2.279,4.367Zm-1.81,-6.974c0,-0.483 -0.154,-0.863 -0.462,-1.138c-0.304,-0.28 -0.712,-0.42 -1.225,-0.42l-2.225,0l0,3.095l2.225,-0c0.508,-0 0.916,-0.138 1.225,-0.413c0.308,-0.276 0.462,-0.65 0.462,-1.124Zm3.708,6.974l1.51,0l0,-9.872l-1.51,-0l0,9.872Zm9.856,0l-6.341,0l-0,-9.872l6.341,-0l-0,1.34l-4.831,0l0,2.885l4.123,-0l-0,1.334l-4.123,-0l0,2.966l4.831,-0l-0,1.347Zm8.014,-1.612c0.172,-0.365 0.258,-0.767 0.258,-1.205c0,-0.88 -0.27,-1.555 -0.809,-2.024c-0.204,-0.19 -0.452,-0.341 -0.742,-0.454c-0.286,-0.117 -0.655,-0.21 -1.109,-0.278l-1.129,-0.169c-0.222,-0.032 -0.433,-0.088 -0.633,-0.169c-0.199,-0.086 -0.36,-0.181 -0.483,-0.285c-0.249,-0.221 -0.374,-0.528 -0.374,-0.92c-0,-0.298 0.07,-0.563 0.211,-0.793c0.145,-0.234 0.354,-0.417 0.626,-0.548c0.272,-0.131 0.596,-0.197 0.973,-0.197c0.294,0 0.564,0.025 0.809,0.075c0.245,0.045 0.481,0.124 0.708,0.237c0.226,0.108 0.44,0.259 0.639,0.454l0.966,-0.948c-0.417,-0.389 -0.868,-0.671 -1.354,-0.847c-0.485,-0.18 -1.061,-0.271 -1.728,-0.271c-0.675,0 -1.263,0.122 -1.762,0.366c-0.498,0.239 -0.882,0.578 -1.149,1.016c-0.268,0.438 -0.402,0.943 -0.402,1.516c0,0.808 0.241,1.436 0.721,1.883c0.449,0.415 1.078,0.679 1.885,0.792l1.17,0.163c0.29,0.04 0.513,0.092 0.667,0.155c0.158,0.059 0.297,0.147 0.415,0.264c0.263,0.235 0.394,0.576 0.394,1.023c0,0.478 -0.181,0.851 -0.544,1.117c-0.363,0.266 -0.864,0.4 -1.504,0.4c-0.34,-0 -0.659,-0.03 -0.959,-0.088c-0.299,-0.059 -0.582,-0.161 -0.85,-0.305c-0.263,-0.145 -0.506,-0.33 -0.728,-0.555l-1.007,0.988c0.467,0.465 0.98,0.799 1.538,1.002c0.562,0.199 1.222,0.298 1.979,0.298c0.522,0 0.998,-0.063 1.429,-0.189c0.431,-0.131 0.807,-0.323 1.129,-0.576c0.327,-0.257 0.576,-0.566 0.749,-0.928Z" style="fill:#eeeef0;"/></svg>